<?xml version="1.0" encoding="utf-8"?>
<!-- Generator: Adobe Illustrator 22.0.0, SVG Export Plug-In . SVG Version: 6.00 Build 0)  -->
<svg version="1.1" id="Layer_1" xmlns="http://www.w3.org/2000/svg" xmlns:xlink="http://www.w3.org/1999/xlink" x="0px" y="0px"
	 viewBox="0 0 900 512" style="enable-background:new 0 0 900 512;" xml:space="preserve">
<style type="text/css">
	.st0{fill:#F0F0F0;}
	.st1{fill:#D80027;}
	.st2{fill:#0052B4;}
</style>
<circle class="st0" cx="256" cy="256" r="256"/>
<g>
	<path class="st1" d="M244.9,256H512c0-23.1-3.1-45.5-8.8-66.8H244.9V256z"/>
	<path class="st1" d="M244.9,122.4h229.6c-15.7-25.6-35.7-48.2-59.1-66.8H244.9V122.4z"/>
	<path class="st1" d="M256,512c60.2,0,115.6-20.8,159.4-55.7H96.6C140.4,491.2,195.8,512,256,512z"/>
	<path class="st1" d="M37.6,389.6h436.9c12.6-20.5,22.3-43,28.8-66.8H8.8C15.2,346.6,25,369,37.6,389.6z"/>
</g>
<path class="st2" d="M118.6,40h23.3l-21.7,15.8l8.3,25.5l-21.7-15.8L85.1,81.3l7.2-22c-19.1,15.9-35.9,34.6-49.7,55.3h7.5l-13.8,10
	c-2.2,3.6-4.2,7.2-6.2,10.9l6.6,20.3l-12.3-8.9c-3.1,6.5-5.9,13.1-8.4,19.9l7.3,22.4h26.8l-21.7,15.8l8.3,25.5L15,214.6l-13,9.4
	c-1.3,10.5-2,21.1-2,31.9h256c0-141.4,0-158.1,0-256C205.4,0,158.3,14.7,118.6,40z M128.5,230.4l-21.7-15.8l-21.7,15.8l8.3-25.5
	l-21.7-15.8h26.8l8.3-25.5l8.3,25.5h26.8l-21.7,15.8L128.5,230.4z M120.2,130.3l8.3,25.5l-21.7-15.8l-21.7,15.8l8.3-25.5l-21.7-15.8
	h26.8l8.3-25.5l8.3,25.5h26.8L120.2,130.3z M220.3,230.4l-21.7-15.8l-21.7,15.8l8.3-25.5l-21.7-15.8h26.8l8.3-25.5l8.3,25.5h26.8
	L212,204.9L220.3,230.4z M212,130.3l8.3,25.5l-21.7-15.8l-21.7,15.8l8.3-25.5l-21.7-15.8h26.8l8.3-25.5l8.3,25.5h26.8L212,130.3z
	 M212,55.7l8.3,25.5l-21.7-15.8l-21.7,15.8l8.3-25.5L163.5,40h26.8l8.3-25.5l8.3,25.5h26.8L212,55.7z"/>
<path class="st2" d="M902,256c0,141.4-114.6,256-256,256S390,397.4,390,256c0,0.1,256-256,256-256C787.4,0,902,114.6,902,256z"/>
<g>
	<path class="st0" d="M646,0C646,0,646,0,646,0L646,0L646,0z"/>
	<path class="st0" d="M645.3,256h0.7c0-0.2,0-0.5,0-0.7C645.8,255.5,645.5,255.8,645.3,256z"/>
	<path class="st0" d="M646,133.6c0-45,0-74.6,0-133.6h0C504.6,0,390,114.6,390,256h133.6v-75.2l75.2,75.2h46.5
		c0.2-0.2,0.5-0.5,0.7-0.7c0-17.2,0-32.6,0-46.5l-75.2-75.2L646,133.6L646,133.6z"/>
</g>
<g>
	<path class="st1" d="M519.5,33.4c-40,22.8-73.3,56.1-96.1,96.1V256h66.8V100.2v0H646c0-21.1,0-41.1,0-66.8
		C646,33.4,519.5,33.4,519.5,33.4z"/>
	<path class="st1" d="M646,224.5l-91-91h-31.5c0,0,0,0,0,0L646,256h0C646,256,646,234.3,646,224.5z"/>
</g>
<g>
	<polygon class="st0" points="544.4,300.5 558.4,329.9 590.2,322.6 576,351.9 601.5,372.1 569.7,379.3 569.8,411.8 544.4,391.5 
		519,411.8 519.1,379.3 487.3,372.1 512.8,351.9 498.6,322.6 530.3,329.9 	"/>
	<polygon class="st0" points="773.3,356.2 780.3,370.9 796.2,367.2 789.1,381.8 801.8,392 785.9,395.5 786,411.8 773.3,401.6 
		760.6,411.8 760.6,395.5 744.7,392 757.5,381.8 750.4,367.2 766.3,370.9 	"/>
	<polygon class="st0" points="707.9,200.3 715,215 730.8,211.4 723.7,226 736.5,236.1 720.6,239.7 720.6,256 707.9,245.8 695.2,256 
		695.3,239.7 679.4,236.1 692.1,226 685,211.4 700.9,215 	"/>
	<polygon class="st0" points="773.3,111.3 780.3,126 796.2,122.3 789.1,137 801.8,147.1 785.9,150.7 786,167 773.3,156.8 760.6,167 
		760.6,150.7 744.7,147.1 757.5,137 750.4,122.3 766.3,126 	"/>
	<polygon class="st0" points="830.4,178.1 837.4,192.8 853.3,189.1 846.2,203.8 858.9,213.9 843,217.5 843.1,233.7 830.4,223.6 
		817.7,233.7 817.7,217.5 801.8,213.9 814.6,203.8 807.5,189.1 823.3,192.8 	"/>
	<polygon class="st0" points="789.5,256 795.1,273 813,273 798.5,283.5 804,300.5 789.5,290 775.1,300.5 780.6,283.5 766.1,273 
		784,273 	"/>
</g>
</svg>
