<?xml version="1.0" encoding="utf-8"?>
<!-- Generator: Adobe Illustrator 22.0.0, SVG Export Plug-In . SVG Version: 6.00 Build 0)  -->
<svg version="1.1" id="Layer_1" xmlns="http://www.w3.org/2000/svg" xmlns:xlink="http://www.w3.org/1999/xlink" x="0px" y="0px"
	 viewBox="0 0 900 512" style="enable-background:new 0 0 900 512;" xml:space="preserve">
<style type="text/css">
	.st0{fill:#F0F0F0;}
	.st1{fill:#D80027;}
	.st2{fill:#0052B4;}
	.st3{fill:#FFDA44;}
</style>
<circle class="st0" cx="256" cy="256" r="256"/>
<g>
	<path class="st1" d="M244.9,256H512c0-23.1-3.1-45.5-8.8-66.8H244.9V256z"/>
	<path class="st1" d="M244.9,122.4h229.6c-15.7-25.6-35.7-48.2-59.1-66.8H244.9V122.4z"/>
	<path class="st1" d="M256,512c60.2,0,115.6-20.8,159.4-55.7H96.6C140.4,491.2,195.8,512,256,512z"/>
	<path class="st1" d="M37.6,389.6h436.9c12.6-20.5,22.3-43,28.8-66.8H8.8C15.2,346.6,25,369,37.6,389.6z"/>
</g>
<path class="st2" d="M118.6,40h23.3l-21.7,15.8l8.3,25.5l-21.7-15.8L85.1,81.3l7.2-22c-19.1,15.9-35.9,34.6-49.7,55.3h7.5l-13.8,10
	c-2.2,3.6-4.2,7.2-6.2,10.9l6.6,20.3l-12.3-8.9c-3.1,6.5-5.9,13.1-8.4,19.9l7.3,22.4h26.8l-21.7,15.8l8.3,25.5L15,214.6l-13,9.4
	c-1.3,10.5-2,21.1-2,31.9h256c0-141.4,0-158.1,0-256C205.4,0,158.3,14.7,118.6,40z M128.5,230.4l-21.7-15.8l-21.7,15.8l8.3-25.5
	l-21.7-15.8h26.8l8.3-25.5l8.3,25.5h26.8l-21.7,15.8L128.5,230.4z M120.2,130.3l8.3,25.5l-21.7-15.8l-21.7,15.8l8.3-25.5l-21.7-15.8
	h26.8l8.3-25.5l8.3,25.5h26.8L120.2,130.3z M220.3,230.4l-21.7-15.8l-21.7,15.8l8.3-25.5l-21.7-15.8h26.8l8.3-25.5l8.3,25.5h26.8
	L212,204.9L220.3,230.4z M212,130.3l8.3,25.5l-21.7-15.8l-21.7,15.8l8.3-25.5l-21.7-15.8h26.8l8.3-25.5l8.3,25.5h26.8L212,130.3z
	 M212,55.7l8.3,25.5l-21.7-15.8l-21.7,15.8l8.3-25.5L163.5,40h26.8l8.3-25.5l8.3,25.5h26.8L212,55.7z"/>
<g>
	<circle class="st2" cx="644" cy="256" r="256"/>
	<g>
		<polygon class="st3" points="644,100.2 652.3,125.7 679.1,125.7 657.4,141.4 665.7,167 644,151.2 622.3,167 630.6,141.4 
			608.9,125.7 635.7,125.7 		"/>
		<polygon class="st3" points="533.8,145.8 557.7,158 576.7,139 572.5,165.5 596.4,177.7 569.9,181.9 565.7,208.4 553.5,184.5 
			527,188.7 546,169.7 		"/>
		<polygon class="st3" points="488.2,256 513.7,247.7 513.7,220.9 529.4,242.6 555,234.3 539.2,256 555,277.7 529.4,269.4 
			513.7,291.1 513.7,264.3 		"/>
		<polygon class="st3" points="533.8,366.2 546,342.3 527,323.3 553.5,327.5 565.7,303.6 569.9,330.1 596.4,334.3 572.5,346.5 
			576.7,373 557.7,354 		"/>
		<polygon class="st3" points="644,411.8 635.7,386.3 608.9,386.3 630.6,370.6 622.3,345 644,360.8 665.7,345 657.4,370.6 
			679.1,386.3 652.3,386.3 		"/>
		<polygon class="st3" points="754.2,366.2 730.3,354 711.3,373 715.5,346.5 691.6,334.3 718.1,330.1 722.3,303.6 734.5,327.5 
			761,323.3 742,342.3 		"/>
		<polygon class="st3" points="799.8,256 774.3,264.3 774.3,291.1 758.6,269.4 733,277.7 748.8,256 733,234.3 758.6,242.6 
			774.3,220.9 774.3,247.7 		"/>
		<polygon class="st3" points="754.2,145.8 742,169.7 761,188.7 734.5,184.5 722.3,208.4 718.1,181.9 691.6,177.7 715.5,165.5 
			711.3,139 730.3,158 		"/>
	</g>
</g>
</svg>
