<?xml version="1.0" encoding="utf-8"?>
<!-- Generator: Adobe Illustrator 22.0.0, SVG Export Plug-In . SVG Version: 6.00 Build 0)  -->
<svg version="1.1" id="Layer_1" xmlns="http://www.w3.org/2000/svg" xmlns:xlink="http://www.w3.org/1999/xlink" x="0px" y="0px"
	 viewBox="0 0 900 512" style="enable-background:new 0 0 900 512;" xml:space="preserve">
<style type="text/css">
	.st0{fill:#F0F0F0;}
	.st1{fill:#D80027;}
	.st2{fill:#0052B4;}
</style>
<circle class="st0" cx="256" cy="256" r="256"/>
<g>
	<path class="st1" d="M244.9,256H512c0-23.1-3.1-45.5-8.8-66.8H244.9V256z"/>
	<path class="st1" d="M244.9,122.4h229.6c-15.7-25.6-35.7-48.2-59.1-66.8H244.9V122.4z"/>
	<path class="st1" d="M256,512c60.2,0,115.6-20.8,159.4-55.7H96.6C140.4,491.2,195.8,512,256,512z"/>
	<path class="st1" d="M37.6,389.6h436.9c12.6-20.5,22.3-43,28.8-66.8H8.8C15.2,346.6,25,369,37.6,389.6z"/>
</g>
<path class="st2" d="M118.6,40h23.3l-21.7,15.8l8.3,25.5l-21.7-15.8L85.1,81.3l7.2-22c-19.1,15.9-35.9,34.6-49.7,55.3h7.5l-13.8,10
	c-2.2,3.6-4.2,7.2-6.2,10.9l6.6,20.3l-12.3-8.9c-3.1,6.5-5.9,13.1-8.4,19.9l7.3,22.4h26.8l-21.7,15.8l8.3,25.5L15,214.6l-13,9.4
	c-1.3,10.5-2,21.1-2,31.9h256c0-141.4,0-158.1,0-256C205.4,0,158.3,14.7,118.6,40z M128.5,230.4l-21.7-15.8l-21.7,15.8l8.3-25.5
	l-21.7-15.8h26.8l8.3-25.5l8.3,25.5h26.8l-21.7,15.8L128.5,230.4z M120.2,130.3l8.3,25.5l-21.7-15.8l-21.7,15.8l8.3-25.5l-21.7-15.8
	h26.8l8.3-25.5l8.3,25.5h26.8L120.2,130.3z M220.3,230.4l-21.7-15.8l-21.7,15.8l8.3-25.5l-21.7-15.8h26.8l8.3-25.5l8.3,25.5h26.8
	L212,204.9L220.3,230.4z M212,130.3l8.3,25.5l-21.7-15.8l-21.7,15.8l8.3-25.5l-21.7-15.8h26.8l8.3-25.5l8.3,25.5h26.8L212,130.3z
	 M212,55.7l8.3,25.5l-21.7-15.8l-21.7,15.8l8.3-25.5L163.5,40h26.8l8.3-25.5l8.3,25.5h26.8L212,55.7z"/>
<g>
	<circle class="st0" cx="644" cy="256" r="256"/>
	<g>
		<path class="st2" d="M440.9,100.1c-20.1,26.2-35.3,56.3-44.1,89.1H530L440.9,100.1z"/>
		<path class="st2" d="M891.2,189.2c-8.8-32.8-24-62.9-44.1-89.1L758,189.2H891.2z"/>
		<path class="st2" d="M396.8,322.8c8.8,32.8,24,62.9,44.1,89.1l89.1-89.1H396.8L396.8,322.8z"/>
		<path class="st2" d="M799.9,52.9c-26.2-20.1-56.3-35.3-89.1-44.1V142L799.9,52.9z"/>
		<path class="st2" d="M488.1,459.1c26.2,20.1,56.3,35.3,89.1,44.1V370L488.1,459.1z"/>
		<path class="st2" d="M577.2,8.8c-32.8,8.8-62.9,24-89.1,44.1l89.1,89.1V8.8z"/>
		<path class="st2" d="M710.8,503.2c32.8-8.8,62.9-24,89.1-44.1L710.8,370V503.2L710.8,503.2z"/>
		<path class="st2" d="M758,322.8l89.1,89.1c20.1-26.2,35.3-56.3,44.1-89.1H758z"/>
	</g>
	<g>
		<path class="st1" d="M897.8,222.6H677.4h0V2.2C666.5,0.7,655.3,0,644,0c-11.3,0-22.5,0.7-33.4,2.2v220.4v0H390.2
			c-1.4,10.9-2.2,22.1-2.2,33.4c0,11.3,0.7,22.5,2.2,33.4h220.4h0v220.4c10.9,1.4,22.1,2.2,33.4,2.2c11.3,0,22.5-0.7,33.4-2.2V289.4
			v0h220.4c1.4-10.9,2.2-22.1,2.2-33.4C900,244.7,899.3,233.5,897.8,222.6z"/>
		<path class="st1" d="M710.8,322.8L710.8,322.8L825,437c5.3-5.3,10.3-10.7,15-16.4l-97.8-97.8L710.8,322.8L710.8,322.8L710.8,322.8
			z"/>
		<path class="st1" d="M577.2,322.8L577.2,322.8L463,437c5.3,5.3,10.7,10.3,16.4,15l97.8-97.8L577.2,322.8L577.2,322.8z"/>
		<path class="st1" d="M577.2,189.2L577.2,189.2L463,75c-5.3,5.3-10.3,10.7-15,16.4l97.8,97.8L577.2,189.2L577.2,189.2z"/>
		<path class="st1" d="M710.8,189.2L710.8,189.2L825,75c-5.3-5.3-10.7-10.3-16.4-15l-97.8,97.8V189.2z"/>
	</g>
</g>
</svg>
