<?xml version="1.0" encoding="utf-8"?>
<!-- Generator: Adobe Illustrator 22.0.0, SVG Export Plug-In . SVG Version: 6.00 Build 0)  -->
<svg version="1.1" id="Layer_1" xmlns="http://www.w3.org/2000/svg" xmlns:xlink="http://www.w3.org/1999/xlink" x="0px" y="0px"
	 viewBox="0 0 900 512" style="enable-background:new 0 0 900 512;" xml:space="preserve">
<style type="text/css">
	.st0{fill:#F0F0F0;}
	.st1{fill:#D80027;}
	.st2{fill:#0052B4;}
</style>
<circle class="st0" cx="256" cy="256" r="256"/>
<g>
	<path class="st1" d="M244.9,256H512c0-23.1-3.1-45.5-8.8-66.8H244.9V256z"/>
	<path class="st1" d="M244.9,122.4h229.6c-15.7-25.6-35.7-48.2-59.1-66.8H244.9V122.4z"/>
	<path class="st1" d="M256,512c60.2,0,115.6-20.8,159.4-55.7H96.6C140.4,491.2,195.8,512,256,512z"/>
	<path class="st1" d="M37.6,389.6h436.9c12.6-20.5,22.3-43,28.8-66.8H8.8C15.2,346.6,25,369,37.6,389.6z"/>
</g>
<path class="st2" d="M118.6,40h23.3l-21.7,15.8l8.3,25.5l-21.7-15.8L85.1,81.3l7.2-22c-19.1,15.9-35.9,34.6-49.7,55.3h7.5l-13.8,10
	c-2.2,3.6-4.2,7.2-6.2,10.9l6.6,20.3l-12.3-8.9c-3.1,6.5-5.9,13.1-8.4,19.9l7.3,22.4h26.8l-21.7,15.8l8.3,25.5L15,214.6l-13,9.4
	c-1.3,10.5-2,21.1-2,31.9h256c0-141.4,0-158.1,0-256C205.4,0,158.3,14.7,118.6,40z M128.5,230.4l-21.7-15.8l-21.7,15.8l8.3-25.5
	l-21.7-15.8h26.8l8.3-25.5l8.3,25.5h26.8l-21.7,15.8L128.5,230.4z M120.2,130.3l8.3,25.5l-21.7-15.8l-21.7,15.8l8.3-25.5l-21.7-15.8
	h26.8l8.3-25.5l8.3,25.5h26.8L120.2,130.3z M220.3,230.4l-21.7-15.8l-21.7,15.8l8.3-25.5l-21.7-15.8h26.8l8.3-25.5l8.3,25.5h26.8
	L212,204.9L220.3,230.4z M212,130.3l8.3,25.5l-21.7-15.8l-21.7,15.8l8.3-25.5l-21.7-15.8h26.8l8.3-25.5l8.3,25.5h26.8L212,130.3z
	 M212,55.7l8.3,25.5l-21.7-15.8l-21.7,15.8l8.3-25.5L163.5,40h26.8l8.3-25.5l8.3,25.5h26.8L212,55.7z"/>
<g>
	<circle class="st0" cx="645" cy="256" r="256"/>
	<path class="st1" d="M389,256C389,114.6,503.6,0,645,0s256,114.6,256,256"/>
	<g>
		<path class="st0" d="M544.8,133.6c0-37.3,26.2-68.5,61.2-76.1c-5.4-1.2-11-1.8-16.7-1.8c-43,0-77.9,34.9-77.9,77.9
			s34.9,77.9,77.9,77.9c5.7,0,11.3-0.6,16.7-1.8C571,202,544.8,170.9,544.8,133.6z"/>
		<polygon class="st0" points="645,61.2 650.5,78.2 668.4,78.2 653.9,88.7 659.5,105.7 645,95.2 630.5,105.7 636.1,88.7 621.6,78.2 
			639.5,78.2 		"/>
		<polygon class="st0" points="601.6,94.6 607.2,111.6 625,111.6 610.6,122.1 616.1,139.1 601.6,128.6 587.2,139.1 592.7,122.1 
			578.2,111.6 596.1,111.6 		"/>
		<polygon class="st0" points="688.4,94.6 693.9,111.6 711.8,111.6 697.3,122.1 702.8,139.1 688.4,128.6 673.9,139.1 679.4,122.1 
			665,111.6 682.8,111.6 		"/>
		<polygon class="st0" points="671.7,144.7 677.2,161.7 695.1,161.7 680.6,172.2 686.1,189.2 671.7,178.7 657.2,189.2 662.7,172.2 
			648.3,161.7 666.2,161.7 		"/>
		<polygon class="st0" points="618.3,144.7 623.8,161.7 641.7,161.7 627.3,172.2 632.8,189.2 618.3,178.7 603.9,189.2 609.4,172.2 
			594.9,161.7 612.8,161.7 		"/>
	</g>
</g>
</svg>
