<?xml version="1.0" encoding="utf-8"?>
<!-- Generator: Adobe Illustrator 22.0.0, SVG Export Plug-In . SVG Version: 6.00 Build 0)  -->
<svg version="1.1" id="Layer_1" xmlns="http://www.w3.org/2000/svg" xmlns:xlink="http://www.w3.org/1999/xlink" x="0px" y="0px"
	 viewBox="0 0 900 512" style="enable-background:new 0 0 900 512;" xml:space="preserve">
<style type="text/css">
	.st0{fill:#F0F0F0;}
	.st1{fill:#D80027;}
	.st2{fill:#0052B4;}
</style>
<circle class="st0" cx="256" cy="256" r="256"/>
<g>
	<path class="st1" d="M244.9,256H512c0-23.1-3.1-45.5-8.8-66.8H244.9V256z"/>
	<path class="st1" d="M244.9,122.4h229.6c-15.7-25.6-35.7-48.2-59.1-66.8H244.9V122.4z"/>
	<path class="st1" d="M256,512c60.2,0,115.6-20.8,159.4-55.7H96.6C140.4,491.2,195.8,512,256,512z"/>
	<path class="st1" d="M37.6,389.6h436.9c12.6-20.5,22.3-43,28.8-66.8H8.8C15.2,346.6,25,369,37.6,389.6z"/>
</g>
<path class="st2" d="M118.6,40h23.3l-21.7,15.8l8.3,25.5l-21.7-15.8L85.1,81.3l7.2-22c-19.1,15.9-35.9,34.6-49.7,55.3h7.5l-13.8,10
	c-2.2,3.6-4.2,7.2-6.2,10.9l6.6,20.3l-12.3-8.9c-3.1,6.5-5.9,13.1-8.4,19.9l7.3,22.4h26.8l-21.7,15.8l8.3,25.5L15,214.6l-13,9.4
	c-1.3,10.5-2,21.1-2,31.9h256c0-141.4,0-158.1,0-256C205.4,0,158.3,14.7,118.6,40z M128.5,230.4l-21.7-15.8l-21.7,15.8l8.3-25.5
	l-21.7-15.8h26.8l8.3-25.5l8.3,25.5h26.8l-21.7,15.8L128.5,230.4z M120.2,130.3l8.3,25.5l-21.7-15.8l-21.7,15.8l8.3-25.5l-21.7-15.8
	h26.8l8.3-25.5l8.3,25.5h26.8L120.2,130.3z M220.3,230.4l-21.7-15.8l-21.7,15.8l8.3-25.5l-21.7-15.8h26.8l8.3-25.5l8.3,25.5h26.8
	L212,204.9L220.3,230.4z M212,130.3l8.3,25.5l-21.7-15.8l-21.7,15.8l8.3-25.5l-21.7-15.8h26.8l8.3-25.5l8.3,25.5h26.8L212,130.3z
	 M212,55.7l8.3,25.5l-21.7-15.8l-21.7,15.8l8.3-25.5L163.5,40h26.8l8.3-25.5l8.3,25.5h26.8L212,55.7z"/>
<g>
	<path class="st2" d="M899.6,256c0,141.4-114.6,256-256,256s-256-114.6-256-256c0,0.1,256-256,256-256C785,0,899.6,114.6,899.6,256z
		"/>
	<g>
		<path class="st0" d="M643.6,0C643.6,0,643.6,0,643.6,0L643.6,0L643.6,0z"/>
		<path class="st0" d="M642.9,256h0.7c0-0.2,0-0.5,0-0.7C643.4,255.5,643.2,255.8,642.9,256z"/>
		<path class="st0" d="M643.6,133.6c0-45,0-74.6,0-133.6h0c-141.4,0-256,114.6-256,256h133.6v-75.2l75.2,75.2h46.5
			c0.2-0.2,0.5-0.5,0.7-0.7c0-17.2,0-32.6,0-46.5l-75.2-75.2H643.6z"/>
	</g>
	<g>
		<path class="st1" d="M517.1,33.4c-40,22.8-73.3,56.1-96.1,96.1V256h66.8V100.2v0h155.8c0-21.1,0-41.1,0-66.8
			C643.6,33.4,517.1,33.4,517.1,33.4z"/>
		<path class="st1" d="M643.6,224.5l-91-91c0,0-31.5,0-31.5,0v0L643.6,256h0C643.6,256,643.6,234.3,643.6,224.5z"/>
		<polygon class="st1" points="831,190 836.5,207 854.4,207 839.9,217.5 845.4,234.5 831,224 816.5,234.5 822,217.5 807.6,207 
			825.4,207 		"/>
		<polygon class="st1" points="767,312.4 775.3,337.9 802.2,337.9 780.5,353.7 788.7,379.2 767,363.4 745.3,379.2 753.6,353.7 
			731.9,337.9 758.8,337.9 		"/>
		<polygon class="st1" points="769.5,112 776.4,133.3 798.7,133.3 780.6,146.4 787.5,167.7 769.5,154.6 751.4,167.7 758.3,146.4 
			740.2,133.3 762.5,133.3 		"/>
		<polygon class="st1" points="708,189.2 716.2,214.7 743.1,214.7 721.4,230.5 729.7,256 708,240.2 686.3,256 694.5,230.5 
			672.8,214.7 699.7,214.7 		"/>
	</g>
</g>
</svg>
